# xmcd
#
# Track frame offsets:
# 150
# 18765
# 37272
# 58785
# 84265
# 117360
# 138400
# 154045
# 169380
# 188805
# 207505
# 237885
# 260625
#
# Disc length: 3817 seconds
#
#
# Revision: 0
# Processed by: cddbd v1.5.2PL0 Copyright (c) Steve Scherf et al.
# Submitted via: Nero 7, 11, 10, 0 
#
DISCID=b50ee70d
DTITLE=T.J. Wheeler and The Smokers - Storybook
DYEAR=1994
DGENRE=Blues
TTITLE0=Sauna Blues
TTITLE1=Midnight Blues
TTITLE2=Face The Music
TTITLE3=Magic (Can Wipe Away Your Tears)
TTITLE4=It Ain't The Heat (It's The Humanity)
TTITLE5=Lost In A World
TTITLE6=Let Me Be Me
TTITLE7=Bible Belt Blues
TTITLE8=Captain Pete
TTITLE9=Spanish Fandango
TTITLE10=Comos Esta Usted? (How Are You?)
TTITLE11=Drinking Gourd
TTITLE12=Up To The Bottom
EXTD=
EXTT0=Sauna Blues
EXTT1=Midnight Blues
EXTT2=Face The Music
EXTT3=Magic (Can Wipe Away Your Tears)
EXTT4=It Ain't The Heat (It's The Humanity)
EXTT5=Lost In A World
EXTT6=Let Me Be Me
EXTT7=Bible Belt Blues
EXTT8=Captain Pete
EXTT9=Spanish Fandango
EXTT10=Comos Esta Usted? (How Are You?)
EXTT11=Drinking Gourd
EXTT12=Up To The Bottom
PLAYORDER=
